<mxfile host="app.diagrams.net" modified="2024-04-02T04:26:27.802Z" agent="Mozilla/5.0 (Windows NT 10.0; Win64; x64) AppleWebKit/537.36 (KHTML, like Gecko) Chrome/123.0.0.0 Safari/537.36" version="23.1.2" etag="kg8Di2Tb5uwHlZnbzO89" type="github">
  <diagram name="Page-1" id="pecLkVwlzULoLIY2V-5H">
    <mxGraphModel>
      <root>
        <mxCell id="0" />
        <mxCell id="1" parent="0" />
      </root>
    </mxGraphModel>
  </diagram>
</mxfile>
